<svg
  xmlns="http://www.w3.org/2000/svg"
  version="1.1"
  xmlns:xlink="http://www.w3.org/1999/xlink"
  xmlns:svgjs="http://svgjs.com/svgjs"
  width="1024"
  height="1024"
  viewBox="0 0 100 100"
>
  <g class="wrap" transform="matrix(1,0,0,1,0,0)">
    <defs class="background">
      <g id="background">
        <path
          fill="url(#background-gradient)"
          stroke="none"
          d=" M 97.45 2.65 Q 94.8 0 91.15 0 L 8.85 0 Q 5.2 0 2.65 2.65 0 5.2 0 8.85 L 0 91.15 Q 0 94.8 2.65 97.45 5.2 100 8.85 100 L 91.15 100 Q 94.8 100 97.45 97.45 100 94.8 100 91.15 L 100 8.85 Q 100 5.2 97.45 2.65 Z"
        ></path>
      </g>

      <mask id="mask">
        <path
          fill="#FFFFFF"
          stroke="none"
          d=" M 97.45 2.65 Q 94.8 0 91.15 0 L 8.85 0 Q 5.2 0 2.65 2.65 0 5.2 0 8.85 L 0 91.15 Q 0 94.8 2.65 97.45 5.2 100 8.85 100 L 91.15 100 Q 94.8 100 97.45 97.45 100 94.8 100 91.15 L 100 8.85 Q 100 5.2 97.45 2.65 Z"
        ></path>
      </mask>

      <linearGradient
        id="background-gradient"
        x1="0"
        y1="0"
        y2="1"
        x2="0"
        gradientTransform="rotate(180 0.5 0.5)"
      >
        <stop stop-color="rgba(0,0,0,0)" offset="0%"></stop>
        <stop stop-color="rgba(0,0,0,0)" offset="100%"></stop>
      </linearGradient>

      <linearGradient
        class="shapgradient"
        gradientTransform="rotate(0 0.5 0.5)"
        id="SvgjsLinearGradient1172"
      >
        <stop stop-color="#ffffff" offset="0"></stop>
        <stop stop-color="#ffffff" offset="1"></stop>
      </linearGradient>
      <filter width="200%" height="200%" x="-50%" y="-50%" id="SvgjsFilter1643">
        <feGaussianBlur
          id="SvgjsFeGaussianBlur1638"
          result="SvgjsFeGaussianBlur1638"
          in="SourceAlpha"
          stdDeviation="2 2"
        ></feGaussianBlur>
        <feOffset
          id="SvgjsFeOffset1639"
          result="SvgjsFeOffset1639"
          in="SvgjsFeGaussianBlur1638"
          dy="2.82842712474619"
          dx="2.8284271247461903"
        ></feOffset>
        <feFlood
          id="SvgjsFeFlood1640"
          result="SvgjsFeFlood1640"
          in="SourceGraphic"
          flood-opacity="1"
          flood-color="#56565c"
        ></feFlood>
        <feComposite
          id="SvgjsFeComposite1641"
          result="SvgjsFeComposite1641"
          in="SvgjsFeFlood1640"
          operator="in"
          in2="SvgjsFeOffset1639"
        ></feComposite>
        <feBlend
          id="SvgjsFeBlend1642"
          result="SvgjsFeBlend1642"
          in="SourceGraphic"
        ></feBlend>
      </filter>
    </defs>
    <use
      xlink:href="#background"
      fill="url(#background-gradient)"
      class="background"
    ></use>
    <g class="geditable" mask='url("#mask")'>
      <g
        mask='url("#mask")'
        fill="url(#SvgjsLinearGradient1172)"
        class="editable"
        transform="matrix(1,0,0,1,0,0)"
        filter="url(#SvgjsFilter1643)"
      >
        <g
          transform="matrix(0.1171875,0,0,0.1171875,-0.00001683831214904785,0)"
        >
          <g>
            <path
              d="M302.41681315104165 389.7196666666666H363.0258131510417C367.16881315104166 389.7196666666666 370.5258131510417 386.3616666666666 370.5258131510417 382.2196666666666V321.6096666666666C370.5258131510417 317.4676666666666 367.16881315104166 314.1096666666666 363.0258131510417 314.1096666666666H302.41681315104165C298.2738131510416 314.1096666666666 294.91681315104165 317.4676666666666 294.91681315104165 321.6096666666666V382.2196666666666C294.91681315104165 386.3616666666666 298.2738131510416 389.7196666666666 302.41681315104165 389.7196666666666ZM309.91681315104165 329.1096666666666H355.5258131510417V374.7196666666666H309.91681315104165Z "
            ></path>
            <path
              d="M396.36181315104164 389.7196666666666H456.9708131510416C461.1138131510416 389.7196666666666 464.4708131510416 386.3616666666666 464.4708131510416 382.2196666666666V321.6096666666666C464.4708131510416 317.4676666666666 461.1138131510416 314.1096666666666 456.9708131510416 314.1096666666666H396.3618131510416C392.2188131510416 314.1096666666666 388.8618131510416 317.4676666666666 388.8618131510416 321.6096666666666V382.2196666666666C388.8618131510416 386.3616666666666 392.21981315104165 389.7196666666666 396.3618131510416 389.7196666666666ZM403.86181315104164 329.1096666666666H449.4708131510416V374.7196666666666H403.8618131510416Z "
            ></path>
            <path
              d="M490.30781315104167 389.7196666666666H550.9168131510417C555.0598131510417 389.7196666666666 558.4168131510417 386.3616666666666 558.4168131510417 382.2196666666666V321.6096666666666C558.4168131510417 317.4676666666666 555.0598131510417 314.1096666666666 550.9168131510417 314.1096666666666H490.30781315104167C486.1648131510417 314.1096666666666 482.80781315104167 317.4676666666666 482.80781315104167 321.6096666666666V382.2196666666666C482.80781315104167 386.3616666666666 486.1648131510417 389.7196666666666 490.30781315104167 389.7196666666666ZM497.80781315104167 329.1096666666666H543.4168131510417V374.7196666666666H497.80781315104167Z "
            ></path>
            <path
              d="M584.2518436686198 389.7196666666666H644.8618436686197C649.0048436686197 389.7196666666666 652.3618436686197 386.3616666666666 652.3618436686197 382.2196666666666V321.6096666666666C652.3618436686197 317.4676666666666 649.0048436686197 314.1096666666666 644.8618436686197 314.1096666666666H584.2518436686198C580.1088436686198 314.1096666666666 576.7518436686198 317.4676666666666 576.7518436686198 321.6096666666666V382.2196666666666C576.7518436686198 386.3616666666666 580.1088436686198 389.7196666666666 584.2518436686198 389.7196666666666ZM591.7518436686198 329.1096666666666H637.3618436686197V374.7196666666666H591.7518436686198Z "
            ></path>
            <path
              d="M208.47181315104166 477.26666666666665H269.0818131510416C273.22481315104164 477.26666666666665 276.5818131510416 473.90866666666665 276.5818131510416 469.76666666666665V409.1576666666666C276.5818131510416 405.0156666666667 273.22481315104164 401.6576666666666 269.0818131510416 401.6576666666666H208.47181315104166C204.32881315104163 401.6576666666666 200.97181315104166 405.0156666666667 200.97181315104166 409.1576666666666V469.76666666666665C200.97181315104166 473.90866666666665 204.32881315104163 477.26666666666665 208.47181315104166 477.26666666666665ZM215.97181315104166 416.6576666666666H261.5818131510416V462.26666666666665H215.97181315104166Z "
            ></path>
            <path
              d="M294.91681315104165 469.76666666666665C294.91681315104165 473.90866666666665 298.2738131510416 477.26666666666665 302.41681315104165 477.26666666666665H363.0258131510417C367.16881315104166 477.26666666666665 370.5258131510417 473.90866666666665 370.5258131510417 469.76666666666665V409.1576666666666C370.5258131510417 405.0156666666667 367.16881315104166 401.6576666666666 363.0258131510417 401.6576666666666H302.41681315104165C298.2738131510416 401.6576666666666 294.91681315104165 405.0156666666667 294.91681315104165 409.1576666666666ZM309.91681315104165 416.6576666666666H355.5258131510417V462.26666666666665H309.91681315104165Z "
            ></path>
            <path
              d="M388.86181315104164 469.76666666666665C388.86181315104164 473.90866666666665 392.2188131510417 477.26666666666665 396.36181315104164 477.26666666666665H456.9708131510416C461.1138131510416 477.26666666666665 464.4708131510416 473.90866666666665 464.4708131510416 469.76666666666665V409.1576666666666C464.4708131510416 405.0156666666667 461.1138131510416 401.6576666666666 456.9708131510416 401.6576666666666H396.3618131510416C392.2188131510416 401.6576666666666 388.8618131510416 405.0156666666667 388.8618131510416 409.1576666666666ZM403.86181315104164 416.6576666666666H449.4708131510416V462.26666666666665H403.8618131510416Z "
            ></path>
            <path
              d="M482.80781315104167 469.76666666666665C482.80781315104167 473.90866666666665 486.1648131510417 477.26666666666665 490.30781315104167 477.26666666666665H550.9168131510417C555.0598131510417 477.26666666666665 558.4168131510417 473.90866666666665 558.4168131510417 469.76666666666665V409.1576666666666C558.4168131510417 405.0156666666667 555.0598131510417 401.6576666666666 550.9168131510417 401.6576666666666H490.30781315104167C486.1648131510417 401.6576666666666 482.80781315104167 405.0156666666667 482.80781315104167 409.1576666666666ZM497.80781315104167 416.6576666666666H543.4168131510417V462.26666666666665H497.80781315104167Z "
            ></path>
            <path
              d="M576.7518131510417 469.76666666666665C576.7518131510417 473.90866666666665 580.1088131510417 477.26666666666665 584.2518131510417 477.26666666666665H644.8618131510416C649.0048131510416 477.26666666666665 652.3618131510416 473.90866666666665 652.3618131510416 469.76666666666665V409.1576666666666C652.3618131510416 405.0156666666667 649.0048131510416 401.6576666666666 644.8618131510416 401.6576666666666H584.2518131510417C580.1088131510417 401.6576666666666 576.7518131510417 405.0156666666667 576.7518131510417 409.1576666666666ZM591.7518131510417 416.6576666666666H637.3618131510416V462.26666666666665H591.7518131510417Z "
            ></path>
            <path
              d="M200.97181315104166 557.3136666666667C200.97181315104166 561.4556666666666 204.32881315104166 564.8136666666667 208.47181315104166 564.8136666666667H269.0818131510416C273.22481315104164 564.8136666666667 276.5818131510416 561.4556666666666 276.5818131510416 557.3136666666667V496.70466666666664C276.5818131510416 492.56266666666664 273.22481315104164 489.20466666666664 269.0818131510416 489.20466666666664H208.47181315104166C204.32881315104163 489.20466666666664 200.97181315104166 492.56266666666664 200.97181315104166 496.70466666666664ZM215.97181315104166 504.20466666666664H261.5818131510416V549.8136666666667H215.97181315104166Z "
            ></path>
            <path
              d="M294.91681315104165 557.3136666666667C294.91681315104165 561.4556666666666 298.2738131510416 564.8136666666667 302.41681315104165 564.8136666666667H363.0258131510417C367.16881315104166 564.8136666666667 370.5258131510417 561.4556666666666 370.5258131510417 557.3136666666667V496.70466666666664C370.5258131510417 492.56266666666664 367.16881315104166 489.20466666666664 363.0258131510417 489.20466666666664H302.41681315104165C298.2738131510416 489.20466666666664 294.91681315104165 492.56266666666664 294.91681315104165 496.70466666666664ZM309.91681315104165 504.20466666666664H355.5258131510417V549.8136666666667H309.91681315104165Z "
            ></path>
            <path
              d="M388.86181315104164 557.3136666666667C388.86181315104164 561.4556666666666 392.2188131510417 564.8136666666667 396.36181315104164 564.8136666666667H456.9708131510416C461.1138131510416 564.8136666666667 464.4708131510416 561.4556666666666 464.4708131510416 557.3136666666667V496.70466666666664C464.4708131510416 492.56266666666664 461.1138131510416 489.20466666666664 456.9708131510416 489.20466666666664H396.3618131510416C392.2188131510416 489.20466666666664 388.8618131510416 492.56266666666664 388.8618131510416 496.70466666666664ZM403.86181315104164 504.20466666666664H449.4708131510416V549.8136666666667H403.8618131510416Z "
            ></path>
            <path
              d="M482.80781315104167 557.3136666666667C482.80781315104167 561.4556666666666 486.1648131510417 564.8136666666667 490.30781315104167 564.8136666666667H550.9168131510417C555.0598131510417 564.8136666666667 558.4168131510417 561.4556666666666 558.4168131510417 557.3136666666667V496.70466666666664C558.4168131510417 492.56266666666664 555.0598131510417 489.20466666666664 550.9168131510417 489.20466666666664H490.30781315104167C486.1648131510417 489.20466666666664 482.80781315104167 492.56266666666664 482.80781315104167 496.70466666666664ZM497.80781315104167 504.20466666666664H543.4168131510417V549.8136666666667H497.80781315104167Z "
            ></path>
            <path
              d="M576.7518131510417 557.3136666666667C576.7518131510417 561.4556666666666 580.1088131510417 564.8136666666667 584.2518131510417 564.8136666666667H644.8618131510416C649.0048131510416 564.8136666666667 652.3618131510416 561.4556666666666 652.3618131510416 557.3136666666667V496.70466666666664C652.3618131510416 492.56266666666664 649.0048131510416 489.20466666666664 644.8618131510416 489.20466666666664H584.2518131510417C580.1088131510417 489.20466666666664 576.7518131510417 492.56266666666664 576.7518131510417 496.70466666666664ZM591.7518131510417 504.20466666666664H637.3618131510416V549.8136666666667H591.7518131510417Z "
            ></path>
            <path
              d="M200.97181315104166 644.8616971842448C200.97181315104166 649.0036971842447 204.32881315104166 652.3616971842448 208.47181315104166 652.3616971842448H269.0818131510416C273.22481315104164 652.3616971842448 276.5818131510416 649.0036971842447 276.5818131510416 644.8616971842448V584.2516971842447C276.5818131510416 580.1096971842447 273.22481315104164 576.7516971842447 269.0818131510416 576.7516971842447H208.47181315104166C204.32881315104163 576.7516971842447 200.97181315104166 580.1096971842447 200.97181315104166 584.2516971842447ZM215.97181315104166 591.7516971842447H261.5818131510416V637.3616971842448H215.97181315104166Z "
            ></path>
            <path
              d="M294.91681315104165 644.8616971842448C294.91681315104165 649.0036971842447 298.2738131510416 652.3616971842448 302.41681315104165 652.3616971842448H363.0258131510417C367.16881315104166 652.3616971842448 370.5258131510417 649.0036971842447 370.5258131510417 644.8616971842448V584.2516971842447C370.5258131510417 580.1096971842447 367.16881315104166 576.7516971842447 363.0258131510417 576.7516971842447H302.41681315104165C298.2738131510416 576.7516971842447 294.91681315104165 580.1096971842447 294.91681315104165 584.2516971842447ZM309.91681315104165 591.7516971842447H355.5258131510417V637.3616971842448H309.91681315104165Z "
            ></path>
            <path
              d="M388.86181315104164 644.8616971842448C388.86181315104164 649.0036971842447 392.2188131510417 652.3616971842448 396.36181315104164 652.3616971842448H456.9708131510416C461.1138131510416 652.3616971842448 464.4708131510416 649.0036971842447 464.4708131510416 644.8616971842448V584.2516971842447C464.4708131510416 580.1096971842447 461.1138131510416 576.7516971842447 456.9708131510416 576.7516971842447H396.3618131510416C392.2188131510416 576.7516971842447 388.8618131510416 580.1096971842447 388.8618131510416 584.2516971842447ZM403.86181315104164 591.7516971842447H449.4708131510416V637.3616971842448H403.8618131510416Z "
            ></path>
            <path
              d="M675.1668131510417 370.5236666666666C671.0238131510416 370.5236666666666 667.6668131510417 373.88166666666666 667.6668131510417 378.0236666666666V667.6666666666666H185.66681315104165V579.7206666666666C185.66681315104165 575.5786666666665 182.30981315104165 572.2206666666666 178.16681315104165 572.2206666666666S170.66681315104165 575.5786666666665 170.66681315104165 579.7206666666666V675.1666666666666C170.66681315104165 679.3086666666666 174.02381315104165 682.6666666666666 178.16681315104165 682.6666666666666H675.1668131510417C679.3098131510417 682.6666666666666 682.6668131510417 679.3086666666666 682.6668131510417 675.1666666666666V378.02366666666666C682.6668131510417 373.88166666666666 679.3098131510417 370.52366666666666 675.1668131510417 370.52366666666666Z "
            ></path>
            <path
              d="M675.1667940775553 202.99166666666667H620.0367940775553V178.16666666666666C620.0367940775553 174.02466666666666 616.6797940775552 170.66666666666666 612.5367940775553 170.66666666666666H572.1307940775553C567.9877940775553 170.66666666666666 564.6307940775553 174.02466666666666 564.6307940775553 178.16666666666666V202.99666666666667H508.9187940775553V178.16666666666666C508.9187940775553 174.02466666666666 505.5617940775553 170.66666666666666 501.4187940775553 170.66666666666666H461.0127940775553C456.8697940775553 170.66666666666666 453.5127940775553 174.02466666666666 453.5127940775553 178.16666666666666V202.99666666666667H400.8317940775553V178.16666666666666C400.8317940775553 174.02466666666666 397.4747940775553 170.66666666666666 393.3317940775553 170.66666666666666H352.92479407755536C348.78179407755533 170.66666666666666 345.42479407755536 174.02466666666666 345.42479407755536 178.16666666666666V202.99666666666667H288.7027940775553V178.16666666666666C288.7027940775553 174.02466666666666 285.3457940775553 170.66666666666666 281.2027940775553 170.66666666666666H240.79679407755532C236.65379407755532 170.66666666666666 233.29679407755532 174.02466666666666 233.29679407755532 178.16666666666666V202.99166666666667H178.16679407755532C174.02379407755532 202.99166666666667 170.66679407755532 206.34966666666665 170.66679407755532 210.49166666666667V544.6576666666666C170.66679407755532 548.7996666666667 174.02379407755532 552.1576666666666 178.16679407755532 552.1576666666666S185.66679407755532 548.7996666666667 185.66679407755532 544.6576666666666V298.80466666666666H667.6667940775553V342.8806666666666C667.6667940775553 347.0226666666666 671.0237940775553 350.3806666666666 675.1667940775553 350.3806666666666S682.6667940775553 347.0226666666666 682.6667940775553 342.8806666666666V210.49166666666662C682.6667940775553 206.34966666666662 679.3097940775552 202.99166666666662 675.1667940775553 202.99166666666662ZM579.6307940775553 185.66666666666666H605.0367940775553V235.31666666666666H579.6307940775553ZM468.5127940775553 185.66666666666666H493.9187940775553V235.31666666666666H468.5127940775553ZM360.4247940775553 185.66666666666666H385.8317940775553V235.31666666666666H360.4247940775553ZM248.29679407755532 185.66666666666666H273.70279407755527V235.31666666666666H248.2967940775553ZM185.6667940775553 217.99166666666667H233.29679407755532V242.81666666666666C233.29679407755532 246.95866666666666 236.6537940775553 250.31666666666666 240.79679407755532 250.31666666666666H281.20279407755527C285.3457940775553 250.31666666666666 288.70279407755527 246.95866666666666 288.70279407755527 242.81666666666666V217.99666666666667H345.4247940775553V242.81666666666666C345.4247940775553 246.95866666666666 348.78179407755533 250.31666666666666 352.9247940775553 250.31666666666666H393.3317940775553C397.4747940775553 250.31666666666666 400.8317940775553 246.95866666666666 400.8317940775553 242.81666666666666V217.99666666666667H453.5127940775553V242.81666666666666C453.5127940775553 246.95866666666666 456.8697940775553 250.31666666666666 461.0127940775553 250.31666666666666H501.4187940775553C505.5617940775553 250.31666666666666 508.9187940775553 246.95866666666666 508.9187940775553 242.81666666666666V217.99666666666667H564.6307940775553V242.81666666666666C564.6307940775553 246.95866666666666 567.9877940775553 250.31666666666666 572.1307940775553 250.31666666666666H612.5367940775553C616.6797940775552 250.31666666666666 620.0367940775553 246.95866666666666 620.0367940775553 242.81666666666666V217.99166666666667H667.6667940775553V283.80466666666666H185.6667940775553Z "
            ></path>
          </g>
        </g>
      </g>
    </g>
  </g>
</svg>
